NotoSerifDisplay-SemiBold.ufo
<glyph name="exclamdown" format="2">
  <advance width="382"/>
  <unicode hex="00A1"/>
  <outline>
    <contour>
      <point x="104" y="-180" type="line"/>
      <point x="278" y="-180" type="line"/>
      <point x="198" y="306" type="line"/>
      <point x="183" y="306" type="line"/>
    </contour>
    <contour>
      <point x="190" y="382" type="curve" smooth="yes"/>
      <point x="230" y="382"/>
      <point x="261" y="401"/>
      <point x="261" y="462" type="curve" smooth="yes"/>
      <point x="261" y="522"/>
      <point x="230" y="542"/>
      <point x="190" y="542" type="curve" smooth="yes"/>
      <point x="152" y="542"/>
      <point x="119" y="522"/>
      <point x="119" y="462" type="curve" smooth="yes"/>
      <point x="119" y="401"/>
      <point x="152" y="382"/>
    </contour>
  </outline>
</glyph>
<glyph name="uni0191" format="2">
  <advance width="744"/>
  <unicode hex="0191"/>
  <anchor x="170" y="-10" name="bottom"/>
  <anchor x="434" y="714" name="top"/>
  <anchor x="725" y="714" name="topright"/>
  <outline>
    <contour>
      <point x="170" y="-10" type="curve" smooth="yes"/>
      <point x="325" y="-10"/>
      <point x="403" y="74"/>
      <point x="403" y="216" type="curve" smooth="yes"/>
      <point x="403" y="367" type="line"/>
      <point x="640" y="367" type="line"/>
      <point x="640" y="377" type="line"/>
      <point x="403" y="377" type="line"/>
      <point x="403" y="704" type="line"/>
      <point x="537" y="704" type="line" smooth="yes"/>
      <point x="644" y="704"/>
      <point x="688" y="665"/>
      <point x="697" y="564" type="curve" smooth="yes"/>
      <point x="700" y="530" type="line"/>
      <point x="710" y="530" type="line"/>
      <point x="704" y="714" type="line"/>
      <point x="151" y="714" type="line"/>
      <point x="151" y="704" type="line"/>
      <point x="193" y="704" type="line" smooth="yes"/>
      <point x="222" y="704"/>
      <point x="244" y="696"/>
      <point x="244" y="639" type="curve" smooth="yes"/>
      <point x="244" y="114" type="line" smooth="yes"/>
      <point x="244" y="31"/>
      <point x="211" y="0"/>
      <point x="164" y="0" type="curve" smooth="yes"/>
      <point x="103" y="0"/>
      <point x="78" y="46"/>
      <point x="78" y="183" type="curve"/>
      <point x="43" y="183"/>
      <point x="-12" y="172"/>
      <point x="-12" y="107" type="curve" smooth="yes"/>
      <point x="-12" y="40"/>
      <point x="46" y="-10"/>
    </contour>
  </outline>
</glyph>
<glyph name="florin" format="2">
  <advance width="484"/>
  <unicode hex="0192"/>
  <anchor x="110" y="-15" name="bottom"/>
  <anchor x="371" y="769" name="top"/>
  <anchor x="564" y="769" name="topright"/>
  <outline>
    <contour>
      <point x="110" y="-15" type="curve" smooth="yes"/>
      <point x="272" y="-15"/>
      <point x="341" y="57"/>
      <point x="341" y="228" type="curve" smooth="yes"/>
      <point x="341" y="526" type="line"/>
      <point x="479" y="526" type="line"/>
      <point x="479" y="536" type="line"/>
      <point x="341" y="536" type="line"/>
      <point x="341" y="638" type="line" smooth="yes"/>
      <point x="341" y="730"/>
      <point x="353" y="759"/>
      <point x="389" y="759" type="curve" smooth="yes"/>
      <point x="425" y="759"/>
      <point x="437" y="728"/>
      <point x="437" y="631" type="curve"/>
      <point x="519" y="631"/>
      <point x="560" y="651"/>
      <point x="560" y="694" type="curve" smooth="yes"/>
      <point x="560" y="737"/>
      <point x="518" y="769"/>
      <point x="409" y="769" type="curve" smooth="yes"/>
      <point x="248" y="769"/>
      <point x="189" y="697"/>
      <point x="189" y="573" type="curve" smooth="yes"/>
      <point x="189" y="536" type="line"/>
      <point x="100" y="536" type="line"/>
      <point x="100" y="526" type="line"/>
      <point x="189" y="526" type="line"/>
      <point x="189" y="126" type="line" smooth="yes"/>
      <point x="189" y="24"/>
      <point x="177" y="-5"/>
      <point x="136" y="-5" type="curve" smooth="yes"/>
      <point x="94" y="-5"/>
      <point x="82" y="26"/>
      <point x="82" y="123" type="curve"/>
      <point x="27" y="123"/>
      <point x="-10" y="103"/>
      <point x="-10" y="60" type="curve" smooth="yes"/>
      <point x="-10" y="17"/>
      <point x="28" y="-15"/>
    </contour>
  </outline>
</glyph>
<glyph name="uni023E" format="2">
  <advance width="653"/>
  <unicode hex="023E"/>
  <anchor x="327" y="0" name="bottom"/>
  <anchor x="327" y="714" name="top"/>
  <anchor x="327" y="357" name="center"/>
  <anchor x="663" y="714" name="topright"/>
  <outline>
    <contour>
      <point x="10" y="-58" type="line"/>
      <point x="22" y="-58" type="line"/>
      <point x="586" y="760" type="line"/>
      <point x="574" y="760" type="line"/>
    </contour>
    <component base="T"/>
  </outline>
</glyph>
<glyph name="uni0247" format="2">
  <advance width="571"/>
  <unicode hex="0247"/>
  <anchor x="286" y="-168" name="bottom"/>
  <anchor x="286" y="714" name="top"/>
  <anchor x="551" y="536" name="topright"/>
  <outline>
    <contour>
      <point x="186" y="-168" type="line"/>
      <point x="384" y="714" type="line"/>
      <point x="374" y="714" type="line"/>
      <point x="176" y="-168" type="line"/>
    </contour>
    <component base="e"/>
  </outline>
</glyph>
<glyph name="uni0248" format="2">
  <advance width="397"/>
  <unicode hex="0248"/>
  <anchor x="94" y="-240" name="bottom"/>
  <anchor x="184" y="714" name="top"/>
  <anchor x="366" y="714" name="topright"/>
  <outline>
    <contour>
      <point x="10" y="368" type="line"/>
      <point x="367" y="368" type="line"/>
      <point x="367" y="378" type="line"/>
      <point x="10" y="378" type="line"/>
    </contour>
    <component base="J"/>
  </outline>
</glyph>
<glyph name="uni024C" format="2">
  <advance width="730"/>
  <unicode hex="024C"/>
  <anchor x="377" y="0" name="bottom"/>
  <anchor x="377" y="714" name="top"/>
  <anchor x="710" y="714" name="topright"/>
  <outline>
    <contour>
      <point x="28" y="334" type="line"/>
      <point x="164" y="334" type="line"/>
      <point x="164" y="344" type="line"/>
      <point x="28" y="344" type="line"/>
    </contour>
    <component base="R" xOffset="23"/>
  </outline>
</glyph>
<glyph name="minusbelowcomb" format="2">
  <unicode hex="0320"/>
  <anchor x="0" y="0" name="_bottom"/>
  <anchor x="0" y="-162" name="bottom"/>
  <outline>
    <contour>
      <point x="-106" y="-140" type="line"/>
      <point x="106" y="-140" type="line"/>
      <point x="106" y="-120" type="line"/>
      <point x="-106" y="-120" type="line"/>
    </contour>
  </outline>
</glyph>
<glyph name="uni048F" format="2">
  <advance width="645"/>
  <unicode hex="048F"/>
  <anchor x="323" y="-240" name="bottom"/>
  <anchor x="323" y="536" name="top"/>
  <anchor x="642" y="536" name="topright"/>
  <outline>
    <contour>
      <point x="498" y="-80" type="line"/>
      <point x="506" y="-74" type="line"/>
      <point x="336" y="168" type="line"/>
      <point x="328" y="162" type="line"/>
    </contour>
    <component base="p"/>
  </outline>
</glyph>
<glyph name="uni04CA" format="2">
  <advance width="691"/>
  <unicode hex="04CA"/>
  <anchor x="346" y="0" name="bottom"/>
  <anchor x="346" y="536" name="top"/>
  <outline>
    <contour>
      <point x="526" y="-210" type="line"/>
      <point x="616" y="-210" type="line"/>
      <point x="674" y="0" type="line"/>
      <point x="673" y="10" type="line"/>
      <point x="664" y="10" type="line"/>
      <point x="664" y="0" type="line"/>
    </contour>
    <component base="afii10079"/>
  </outline>
</glyph>
<glyph name="uni051F" format="2">
  <advance width="642"/>
  <unicode hex="051F"/>
  <anchor x="321" y="0" name="bottom"/>
  <anchor x="321" y="536" name="top"/>
  <outline>
    <contour>
      <point x="502" y="326" type="line"/>
      <point x="508" y="335" type="line"/>
      <point x="324" y="454" type="line"/>
      <point x="318" y="445" type="line"/>
    </contour>
    <component base="afii10076"/>
  </outline>
</glyph>
<glyph name="uni1AB9" format="2">
  <unicode hex="1AB9"/>
  <anchor x="-444" y="78" name="_bottom"/>
  <anchor x="-444" y="-240" name="bottom"/>
  <outline>
    <contour>
      <point x="-484" y="-232" type="line"/>
      <point x="-384" y="34" type="line"/>
      <point x="-402" y="40" type="line"/>
      <point x="-502" y="-225" type="line"/>
    </contour>
  </outline>
</glyph>
<glyph name="uni1ABA" format="2">
  <unicode hex="1ABA"/>
  <anchor x="-444" y="78" name="_bottom"/>
  <anchor x="-444" y="-240" name="bottom"/>
  <outline>
    <contour>
      <point x="-485" y="-231" type="line"/>
      <point x="-385" y="35" type="line"/>
      <point x="-403" y="41" type="line"/>
      <point x="-503" y="-224" type="line"/>
    </contour>
    <contour>
      <point x="-489" y="-284" type="curve" smooth="yes"/>
      <point x="-456" y="-284"/>
      <point x="-433" y="-259"/>
      <point x="-433" y="-219" type="curve" smooth="yes"/>
      <point x="-433" y="-179"/>
      <point x="-456" y="-154"/>
      <point x="-489" y="-154" type="curve" smooth="yes"/>
      <point x="-522" y="-154"/>
      <point x="-545" y="-179"/>
      <point x="-545" y="-219" type="curve" smooth="yes"/>
      <point x="-545" y="-259"/>
      <point x="-522" y="-284"/>
    </contour>
  </outline>
</glyph>
<glyph name="uni1ABF" format="2">
  <unicode hex="1ABF"/>
  <anchor x="0" y="0" name="_bottom"/>
  <outline>
    <contour>
      <point x="-167" y="-89" type="curve" smooth="yes"/>
      <point x="-103" y="-278" type="line"/>
      <point x="-55" y="-278" type="line"/>
      <point x="-5" y="-120" type="line"/>
      <point x="53" y="-278" type="line"/>
      <point x="95" y="-278" type="line"/>
      <point x="152" y="-99" type="line" smooth="yes"/>
      <point x="160" y="-73"/>
      <point x="169" y="-68"/>
      <point x="185" y="-68" type="curve" smooth="yes"/>
      <point x="193" y="-68" type="line"/>
      <point x="193" y="-64" type="line"/>
      <point x="104" y="-64" type="line"/>
      <point x="104" y="-68" type="line"/>
      <point x="119" y="-68" type="line" smooth="yes"/>
      <point x="139" y="-68"/>
      <point x="149" y="-74"/>
      <point x="149" y="-87" type="curve" smooth="yes"/>
      <point x="149" y="-92"/>
      <point x="147" y="-100"/>
      <point x="145" y="-107" type="curve" smooth="yes"/>
      <point x="121" y="-182" type="line" smooth="yes"/>
      <point x="115" y="-202"/>
      <point x="106" y="-230"/>
      <point x="102" y="-244" type="curve"/>
      <point x="101" y="-244" type="line"/>
      <point x="95" y="-224"/>
      <point x="87" y="-202"/>
      <point x="80" y="-184" type="curve" smooth="yes"/>
      <point x="36" y="-66" type="line"/>
      <point x="7" y="-66" type="line"/>
      <point x="-43" y="-224" type="line" smooth="yes"/>
      <point x="-45" y="-232"/>
      <point x="-47" y="-238"/>
      <point x="-50" y="-248" type="curve"/>
      <point x="-51" y="-248" type="line"/>
      <point x="-56" y="-229"/>
      <point x="-68" y="-192"/>
      <point x="-75" y="-171" type="curve" smooth="yes"/>
      <point x="-98" y="-102" type="line" smooth="yes"/>
      <point x="-99" y="-96"/>
      <point x="-101" y="-89"/>
      <point x="-101" y="-84" type="curve" smooth="yes"/>
      <point x="-101" y="-71"/>
      <point x="-92" y="-68"/>
      <point x="-74" y="-68" type="curve" smooth="yes"/>
      <point x="-63" y="-68" type="line"/>
      <point x="-63" y="-64" type="line"/>
      <point x="-194" y="-64" type="line"/>
      <point x="-194" y="-68" type="line"/>
      <point x="-193" y="-68" type="line" smooth="yes"/>
      <point x="-181" y="-68"/>
      <point x="-173" y="-72"/>
    </contour>
  </outline>
</glyph>
<glyph name="uni1AC0" format="2">
  <unicode hex="1AC0"/>
  <anchor x="0" y="0" name="_bottom"/>
  <outline>
    <contour>
      <point x="167" y="-253" type="curve" smooth="yes"/>
      <point x="103" y="-64" type="line"/>
      <point x="55" y="-64" type="line"/>
      <point x="5" y="-222" type="line"/>
      <point x="-53" y="-64" type="line"/>
      <point x="-95" y="-64" type="line"/>
      <point x="-152" y="-243" type="line" smooth="yes"/>
      <point x="-160" y="-269"/>
      <point x="-169" y="-274"/>
      <point x="-185" y="-274" type="curve" smooth="yes"/>
      <point x="-193" y="-274" type="line"/>
      <point x="-193" y="-278" type="line"/>
      <point x="-104" y="-278" type="line"/>
      <point x="-104" y="-274" type="line"/>
      <point x="-119" y="-274" type="line" smooth="yes"/>
      <point x="-139" y="-274"/>
      <point x="-149" y="-268"/>
      <point x="-149" y="-255" type="curve" smooth="yes"/>
      <point x="-149" y="-250"/>
      <point x="-147" y="-242"/>
      <point x="-145" y="-235" type="curve" smooth="yes"/>
      <point x="-121" y="-160" type="line" smooth="yes"/>
      <point x="-115" y="-140"/>
      <point x="-106" y="-112"/>
      <point x="-102" y="-98" type="curve"/>
      <point x="-101" y="-98" type="line"/>
      <point x="-95" y="-118"/>
      <point x="-87" y="-140"/>
      <point x="-80" y="-158" type="curve" smooth="yes"/>
      <point x="-36" y="-276" type="line"/>
      <point x="-7" y="-276" type="line"/>
      <point x="43" y="-118" type="line" smooth="yes"/>
      <point x="45" y="-110"/>
      <point x="47" y="-104"/>
      <point x="50" y="-94" type="curve"/>
      <point x="51" y="-94" type="line"/>
      <point x="56" y="-113"/>
      <point x="68" y="-150"/>
      <point x="75" y="-171" type="curve" smooth="yes"/>
      <point x="98" y="-240" type="line" smooth="yes"/>
      <point x="99" y="-246"/>
      <point x="101" y="-253"/>
      <point x="101" y="-258" type="curve" smooth="yes"/>
      <point x="101" y="-271"/>
      <point x="92" y="-274"/>
      <point x="74" y="-274" type="curve" smooth="yes"/>
      <point x="63" y="-274" type="line"/>
      <point x="63" y="-278" type="line"/>
      <point x="194" y="-278" type="line"/>
      <point x="194" y="-274" type="line"/>
      <point x="193" y="-274" type="line" smooth="yes"/>
      <point x="181" y="-274"/>
      <point x="173" y="-270"/>
    </contour>
  </outline>
</glyph>
<glyph name="uni1D09" format="2">
  <advance width="335"/>
  <unicode hex="1D09"/>
  <anchor x="168" y="-203" name="bottom"/>
  <anchor x="168" y="536" name="top"/>
  <outline>
    <contour>
      <point x="19" y="0" type="line"/>
      <point x="316" y="0" type="line"/>
      <point x="316" y="10" type="line"/>
      <point x="272" y="10" type="line" smooth="yes"/>
      <point x="255" y="10"/>
      <point x="241" y="14"/>
      <point x="241" y="51" type="curve" smooth="yes"/>
      <point x="241" y="485" type="line" smooth="yes"/>
      <point x="241" y="522"/>
      <point x="255" y="526"/>
      <point x="272" y="526" type="curve" smooth="yes"/>
      <point x="316" y="526" type="line"/>
      <point x="316" y="536" type="line"/>
      <point x="19" y="536" type="line"/>
      <point x="19" y="526" type="line"/>
      <point x="63" y="526" type="line" smooth="yes"/>
      <point x="80" y="526"/>
      <point x="94" y="522"/>
      <point x="94" y="485" type="curve" smooth="yes"/>
      <point x="94" y="51" type="line" smooth="yes"/>
      <point x="94" y="14"/>
      <point x="80" y="10"/>
      <point x="63" y="10" type="curve" smooth="yes"/>
      <point x="19" y="10" type="line"/>
    </contour>
    <contour>
      <point x="166" y="-203" type="curve" smooth="yes"/>
      <point x="206" y="-203"/>
      <point x="240" y="-180"/>
      <point x="240" y="-131" type="curve" smooth="yes"/>
      <point x="240" y="-80"/>
      <point x="206" y="-59"/>
      <point x="166" y="-59" type="curve" smooth="yes"/>
      <point x="125" y="-59"/>
      <point x="93" y="-80"/>
      <point x="93" y="-131" type="curve" smooth="yes"/>
      <point x="93" y="-180"/>
      <point x="125" y="-203"/>
    </contour>
  </outline>
</glyph>
<glyph name="uni1D24" format="2">
  <advance width="484"/>
  <unicode hex="1D24"/>
  <anchor x="242" y="0" name="bottom"/>
  <anchor x="242" y="536" name="top"/>
  <outline>
    <contour>
      <point x="253" y="-8" type="curve" smooth="yes"/>
      <point x="380" y="-8"/>
      <point x="460" y="39"/>
      <point x="460" y="93" type="curve" smooth="yes"/>
      <point x="460" y="118"/>
      <point x="444" y="140"/>
      <point x="419" y="149" type="curve"/>
      <point x="401" y="41"/>
      <point x="342" y="2"/>
      <point x="266" y="2" type="curve" smooth="yes"/>
      <point x="193" y="2"/>
      <point x="150" y="35"/>
      <point x="150" y="91" type="curve" smooth="yes"/>
      <point x="150" y="143"/>
      <point x="181" y="175"/>
      <point x="235" y="185" type="curve"/>
      <point x="235" y="231" type="line"/>
      <point x="357" y="249"/>
      <point x="444" y="290"/>
      <point x="444" y="396" type="curve" smooth="yes"/>
      <point x="444" y="497"/>
      <point x="366" y="544"/>
      <point x="247" y="544" type="curve" smooth="yes"/>
      <point x="117" y="544"/>
      <point x="57" y="503"/>
      <point x="57" y="453" type="curve" smooth="yes"/>
      <point x="57" y="413"/>
      <point x="96" y="384"/>
      <point x="175" y="384" type="curve"/>
      <point x="175" y="489"/>
      <point x="196" y="534"/>
      <point x="254" y="534" type="curve" smooth="yes"/>
      <point x="301" y="534"/>
      <point x="330" y="504"/>
      <point x="330" y="454" type="curve" smooth="yes"/>
      <point x="330" y="399"/>
      <point x="298" y="368"/>
      <point x="235" y="357" type="curve"/>
      <point x="235" y="306" type="line"/>
      <point x="122" y="288"/>
      <point x="34" y="252"/>
      <point x="34" y="148" type="curve" smooth="yes"/>
      <point x="34" y="50"/>
      <point x="113" y="-8"/>
    </contour>
  </outline>
</glyph>
<glyph name="uni1D7D" format="2">
  <advance width="645"/>
  <unicode hex="1D7D"/>
  <anchor x="340" y="-240" name="bottom"/>
  <anchor x="340" y="536" name="top"/>
  <anchor x="642" y="536" name="topright"/>
  <outline>
    <contour>
      <point x="4" y="262" type="line"/>
      <point x="666" y="262" type="line"/>
      <point x="666" y="272" type="line"/>
      <point x="4" y="272" type="line"/>
    </contour>
    <component base="p"/>
  </outline>
</glyph>
<glyph name="uni1D90" format="2">
  <advance width="649"/>
  <unicode hex="1D90"/>
  <anchor x="325" y="0" name="bottom"/>
  <anchor x="325" y="536" name="top"/>
  <outline>
    <contour>
      <point x="736" y="-197" type="curve" smooth="yes"/>
      <point x="789" y="-197"/>
      <point x="827" y="-178"/>
      <point x="827" y="-137" type="curve" smooth="yes"/>
      <point x="827" y="-121"/>
      <point x="821" y="-104"/>
      <point x="812" y="-95" type="curve"/>
      <point x="796" y="-106"/>
      <point x="773" y="-111"/>
      <point x="735" y="-111" type="curve" smooth="yes"/>
      <point x="658" y="-111"/>
      <point x="637" y="-90"/>
      <point x="637" y="-39" type="curve" smooth="yes"/>
      <point x="637" y="9" type="line"/>
      <point x="627" y="9" type="line"/>
      <point x="627" y="-69" type="line" smooth="yes"/>
      <point x="627" y="-159"/>
      <point x="661" y="-197"/>
    </contour>
    <component base="uni0251"/>
  </outline>
</glyph>
<glyph name="uni1D94" format="2">
  <advance width="529"/>
  <unicode hex="1D94"/>
  <anchor x="265" y="0" name="bottom"/>
  <anchor x="265" y="536" name="top"/>
  <outline>
    <contour>
      <point x="148" y="-197" type="curve" smooth="yes"/>
      <point x="201" y="-197"/>
      <point x="239" y="-178"/>
      <point x="239" y="-137" type="curve" smooth="yes"/>
      <point x="239" y="-121"/>
      <point x="233" y="-104"/>
      <point x="224" y="-95" type="curve"/>
      <point x="208" y="-106"/>
      <point x="185" y="-111"/>
      <point x="147" y="-111" type="curve" smooth="yes"/>
      <point x="70" y="-111"/>
      <point x="49" y="-90"/>
      <point x="49" y="-39" type="curve" smooth="yes"/>
      <point x="49" y="99" type="line"/>
      <point x="39" y="99" type="line"/>
      <point x="39" y="-69" type="line" smooth="yes"/>
      <point x="39" y="-159"/>
      <point x="73" y="-197"/>
    </contour>
    <component base="afii10073"/>
  </outline>
</glyph>
<glyph name="uni1FEF" format="2">
  <unicode hex="1FEF"/>
  <anchor x="289" y="536" name="_top"/>
  <anchor x="289" y="760" name="top"/>
  <outline>
    <contour>
      <point x="327" y="590" type="curve"/>
      <point x="342" y="590" type="line"/>
      <point x="342" y="605" type="line"/>
      <point x="328" y="653"/>
      <point x="318" y="712"/>
      <point x="314" y="760" type="curve"/>
      <point x="194" y="760" type="line"/>
      <point x="194" y="748" type="line"/>
      <point x="225" y="698"/>
      <point x="271" y="642"/>
    </contour>
  </outline>
</glyph>
<glyph name="uni1FFD" format="2">
  <advance width="577"/>
  <unicode hex="1FFD"/>
  <anchor x="289" y="536" name="_top"/>
  <anchor x="289" y="760" name="top"/>
  <outline>
    <contour>
      <point x="216" y="590" type="line"/>
      <point x="231" y="590" type="line"/>
      <point x="287" y="642"/>
      <point x="333" y="698"/>
      <point x="364" y="748" type="curve"/>
      <point x="364" y="760" type="line"/>
      <point x="244" y="760" type="line"/>
      <point x="240" y="712"/>
      <point x="230" y="653"/>
      <point x="216" y="605" type="curve"/>
    </contour>
  </outline>
</glyph>
<glyph name="uni2012" format="2">
  <advance width="559"/>
  <unicode hex="2012"/>
  <outline>
    <contour>
      <point x="45" y="354" type="line"/>
      <point x="514" y="354" type="line"/>
      <point x="514" y="374" type="line"/>
      <point x="45" y="374" type="line"/>
    </contour>
  </outline>
</glyph>
<glyph name="plussuperior" format="2">
  <advance width="400"/>
  <unicode hex="207A"/>
  <outline>
    <contour>
      <point x="189" y="330" type="line"/>
      <point x="209" y="330" type="line"/>
      <point x="209" y="472" type="line"/>
      <point x="352" y="472" type="line"/>
      <point x="352" y="492" type="line"/>
      <point x="209" y="492" type="line"/>
      <point x="209" y="633" type="line"/>
      <point x="189" y="633" type="line"/>
      <point x="189" y="492" type="line"/>
      <point x="47" y="492" type="line"/>
      <point x="47" y="472" type="line"/>
      <point x="189" y="472" type="line"/>
    </contour>
  </outline>
</glyph>
<glyph name="parenleftsuperior" format="2">
  <advance width="250"/>
  <unicode hex="207D"/>
  <outline>
    <contour>
      <point x="237" y="196" type="curve"/>
      <point x="237" y="206" type="line"/>
      <point x="143" y="259"/>
      <point x="129" y="325"/>
      <point x="129" y="491" type="curve" smooth="yes"/>
      <point x="129" y="654"/>
      <point x="143" y="724"/>
      <point x="237" y="778" type="curve"/>
      <point x="237" y="788" type="line"/>
      <point x="95" y="742"/>
      <point x="23" y="679"/>
      <point x="23" y="491" type="curve" smooth="yes"/>
      <point x="23" y="297"/>
      <point x="86" y="242"/>
    </contour>
  </outline>
</glyph>
<glyph name="parenrightsuperior" format="2">
  <advance width="250"/>
  <unicode hex="207E"/>
  <outline>
    <contour>
      <point x="13" y="196" type="line"/>
      <point x="164" y="242"/>
      <point x="227" y="297"/>
      <point x="227" y="491" type="curve" smooth="yes"/>
      <point x="227" y="679"/>
      <point x="155" y="742"/>
      <point x="13" y="788" type="curve"/>
      <point x="13" y="778" type="line"/>
      <point x="107" y="724"/>
      <point x="121" y="654"/>
      <point x="121" y="491" type="curve" smooth="yes"/>
      <point x="121" y="325"/>
      <point x="107" y="259"/>
      <point x="13" y="206" type="curve"/>
    </contour>
  </outline>
</glyph>
<glyph name="uni20A9" format="2">
  <advance width="1067"/>
  <unicode hex="20A9"/>
  <outline>
    <contour>
      <point x="267" y="0" type="line"/>
      <point x="390" y="0" type="line"/>
      <point x="471" y="332" type="line"/>
      <point x="596" y="332" type="line"/>
      <point x="703" y="0" type="line"/>
      <point x="817" y="0" type="line"/>
      <point x="894" y="332" type="line"/>
      <point x="1059" y="332" type="line"/>
      <point x="1059" y="342" type="line"/>
      <point x="896" y="342" type="line"/>
      <point x="921" y="449" type="line"/>
      <point x="1059" y="449" type="line"/>
      <point x="1059" y="459" type="line"/>
      <point x="923" y="459" type="line"/>
      <point x="962" y="625" type="line" smooth="yes"/>
      <point x="976" y="685"/>
      <point x="995" y="704"/>
      <point x="1039" y="704" type="curve" smooth="yes"/>
      <point x="1067" y="704" type="line"/>
      <point x="1067" y="714" type="line"/>
      <point x="836" y="714" type="line"/>
      <point x="836" y="704" type="line"/>
      <point x="890" y="704" type="line" smooth="yes"/>
      <point x="936" y="704"/>
      <point x="955" y="691"/>
      <point x="955" y="655" type="curve" smooth="yes"/>
      <point x="955" y="641"/>
      <point x="952" y="624"/>
      <point x="947" y="603" type="curve" smooth="yes"/>
      <point x="913" y="459" type="line"/>
      <point x="707" y="459" type="line"/>
      <point x="624" y="707" type="line"/>
      <point x="552" y="707" type="line"/>
      <point x="492" y="459" type="line"/>
      <point x="290" y="459" type="line"/>
      <point x="248" y="602" type="line" smooth="yes"/>
      <point x="243" y="620"/>
      <point x="238" y="645"/>
      <point x="238" y="656" type="curve" smooth="yes"/>
      <point x="238" y="689"/>
      <point x="258" y="704"/>
      <point x="298" y="704" type="curve" smooth="yes"/>
      <point x="334" y="704" type="line"/>
      <point x="334" y="714" type="line"/>
      <point x="0" y="714" type="line"/>
      <point x="0" y="704" type="line"/>
      <point x="2" y="704" type="line" smooth="yes"/>
      <point x="39" y="704"/>
      <point x="58" y="693"/>
      <point x="71" y="651" type="curve" smooth="yes"/>
      <point x="129" y="459" type="line"/>
      <point x="8" y="459" type="line"/>
      <point x="8" y="449" type="line"/>
      <point x="132" y="449" type="line"/>
      <point x="164" y="342" type="line"/>
      <point x="8" y="342" type="line"/>
      <point x="8" y="332" type="line"/>
      <point x="167" y="332" type="line"/>
    </contour>
    <contour>
      <point x="396" y="64" type="line"/>
      <point x="327" y="332" type="line"/>
      <point x="461" y="332" type="line"/>
    </contour>
    <contour>
      <point x="324" y="342" type="line"/>
      <point x="293" y="449" type="line"/>
      <point x="489" y="449" type="line"/>
      <point x="463" y="342" type="line"/>
    </contour>
    <contour>
      <point x="825" y="75" type="line"/>
      <point x="750" y="332" type="line"/>
      <point x="884" y="332" type="line"/>
    </contour>
    <contour>
      <point x="473" y="342" type="line"/>
      <point x="500" y="449" type="line"/>
      <point x="558" y="449" type="line"/>
      <point x="593" y="342" type="line"/>
    </contour>
    <contour>
      <point x="502" y="459" type="line"/>
      <point x="525" y="553" type="line"/>
      <point x="555" y="459" type="line"/>
    </contour>
    <contour>
      <point x="746" y="342" type="line"/>
      <point x="710" y="449" type="line"/>
      <point x="911" y="449" type="line"/>
      <point x="886" y="342" type="line"/>
    </contour>
  </outline>
</glyph>
<glyph name="Euro" format="2">
  <advance width="559"/>
  <unicode hex="20AC"/>
  <outline>
    <contour>
      <point x="360" y="-10" type="curve" smooth="yes"/>
      <point x="489" y="-10"/>
      <point x="535" y="50"/>
      <point x="535" y="101" type="curve" smooth="yes"/>
      <point x="535" y="127"/>
      <point x="523" y="146"/>
      <point x="504" y="151" type="curve"/>
      <point x="491" y="36"/>
      <point x="444" y="1"/>
      <point x="373" y="1" type="curve" smooth="yes"/>
      <point x="279" y="1"/>
      <point x="235" y="64"/>
      <point x="228" y="291" type="curve"/>
      <point x="374" y="291" type="line"/>
      <point x="374" y="301" type="line"/>
      <point x="228" y="301" type="line"/>
      <point x="227" y="321"/>
      <point x="226" y="329"/>
      <point x="226" y="363" type="curve" smooth="yes"/>
      <point x="226" y="369"/>
      <point x="226" y="398"/>
      <point x="227" y="415" type="curve"/>
      <point x="414" y="415" type="line"/>
      <point x="414" y="425" type="line"/>
      <point x="228" y="425" type="line"/>
      <point x="232" y="644"/>
      <point x="265" y="712"/>
      <point x="331" y="712" type="curve" smooth="yes"/>
      <point x="400" y="712"/>
      <point x="418" y="638"/>
      <point x="418" y="522" type="curve"/>
      <point x="498" y="522"/>
      <point x="542" y="561"/>
      <point x="542" y="610" type="curve" smooth="yes"/>
      <point x="542" y="672"/>
      <point x="471" y="722"/>
      <point x="354" y="722" type="curve" smooth="yes"/>
      <point x="189" y="722"/>
      <point x="97" y="621"/>
      <point x="82" y="425" type="curve"/>
      <point x="27" y="425" type="line"/>
      <point x="27" y="415" type="line"/>
      <point x="81" y="415" type="line"/>
      <point x="80" y="400"/>
      <point x="80" y="384"/>
      <point x="80" y="367" type="curve" smooth="yes"/>
      <point x="80" y="344"/>
      <point x="81" y="322"/>
      <point x="82" y="301" type="curve"/>
      <point x="27" y="301" type="line"/>
      <point x="27" y="291" type="line"/>
      <point x="83" y="291" type="line"/>
      <point x="101" y="92"/>
      <point x="195" y="-10"/>
    </contour>
  </outline>
</glyph>
<glyph name="uni20AE" format="2">
  <advance width="653"/>
  <unicode hex="20AE"/>
  <anchor x="327" y="0" name="bottom"/>
  <anchor x="327" y="357" name="center"/>
  <anchor x="327" y="714" name="top"/>
  <anchor x="663" y="714" name="topright"/>
  <outline>
    <contour>
      <point x="120" y="294" type="line"/>
      <point x="537" y="481" type="line"/>
      <point x="533" y="490" type="line"/>
      <point x="116" y="303" type="line"/>
    </contour>
    <contour>
      <point x="120" y="148" type="line"/>
      <point x="537" y="335" type="line"/>
      <point x="533" y="344" type="line"/>
      <point x="116" y="157" type="line"/>
    </contour>
    <component base="T"/>
  </outline>
</glyph>
<glyph name="uni20B2" format="2">
  <advance width="769"/>
  <unicode hex="20B2"/>
  <anchor x="425" y="0" name="bottom"/>
  <anchor x="435" y="714" name="top"/>
  <anchor x="749" y="714" name="topright"/>
  <outline>
    <contour>
      <point x="422" y="-80" type="line"/>
      <point x="432" y="-80" type="line"/>
      <point x="432" y="780" type="line"/>
      <point x="422" y="780" type="line"/>
    </contour>
    <component base="G"/>
  </outline>
</glyph>
<glyph name="uni20B3" format="2">
  <advance width="753"/>
  <unicode hex="20B3"/>
  <anchor x="349" y="0" name="bottom"/>
  <anchor x="349" y="714" name="top"/>
  <outline>
    <contour>
      <point x="18" y="375" type="line"/>
      <point x="735" y="375" type="line"/>
      <point x="735" y="385" type="line"/>
      <point x="18" y="385" type="line"/>
    </contour>
    <contour>
      <point x="18" y="235" type="line"/>
      <point x="735" y="235" type="line"/>
      <point x="735" y="245" type="line"/>
      <point x="18" y="245" type="line"/>
    </contour>
    <component base="Lambda"/>
  </outline>
</glyph>
<glyph name="uni20B4" format="2">
  <advance width="586"/>
  <unicode hex="20B4"/>
  <anchor x="293" y="0" name="bottom"/>
  <anchor x="293" y="714" name="top"/>
  <anchor x="20" y="714" name="topright"/>
  <outline>
    <contour>
      <point x="331" y="-10" type="curve" smooth="yes"/>
      <point x="496" y="-10"/>
      <point x="556" y="65"/>
      <point x="556" y="133" type="curve" smooth="yes"/>
      <point x="556" y="198"/>
      <point x="501" y="223"/>
      <point x="443" y="223" type="curve"/>
      <point x="443" y="39"/>
      <point x="387" y="0"/>
      <point x="309" y="0" type="curve" smooth="yes"/>
      <point x="229" y="0"/>
      <point x="172" y="42"/>
      <point x="172" y="128" type="curve" smooth="yes"/>
      <point x="172" y="221"/>
      <point x="237" y="259"/>
      <point x="349" y="305" type="curve" smooth="yes"/>
      <point x="489" y="362"/>
      <point x="536" y="425"/>
      <point x="536" y="523" type="curve" smooth="yes"/>
      <point x="536" y="645"/>
      <point x="439" y="724"/>
      <point x="278" y="724" type="curve" smooth="yes"/>
      <point x="151" y="724"/>
      <point x="78" y="673"/>
      <point x="78" y="609" type="curve" smooth="yes"/>
      <point x="78" y="561"/>
      <point x="119" y="525"/>
      <point x="201" y="525" type="curve"/>
      <point x="201" y="654"/>
      <point x="230" y="712"/>
      <point x="309" y="712" type="curve" smooth="yes"/>
      <point x="361" y="712"/>
      <point x="421" y="687"/>
      <point x="421" y="596" type="curve" smooth="yes"/>
      <point x="421" y="519"/>
      <point x="376" y="475"/>
      <point x="242" y="421" type="curve" smooth="yes"/>
      <point x="104" y="365"/>
      <point x="50" y="307"/>
      <point x="50" y="209" type="curve" smooth="yes"/>
      <point x="50" y="80"/>
      <point x="151" y="-10"/>
    </contour>
    <contour>
      <point x="6" y="306" type="line"/>
      <point x="590" y="306" type="line"/>
      <point x="590" y="316" type="line"/>
      <point x="6" y="316" type="line"/>
    </contour>
    <contour>
      <point x="6" y="431" type="line"/>
      <point x="590" y="431" type="line"/>
      <point x="590" y="441" type="line"/>
      <point x="6" y="441" type="line"/>
    </contour>
  </outline>
</glyph>
<glyph name="uni20B5" format="2">
  <advance width="668"/>
  <unicode hex="20B5"/>
  <anchor x="413" y="-10" name="bottom"/>
  <anchor x="384" y="714" name="top"/>
  <anchor x="648" y="714" name="topright"/>
  <outline>
    <contour>
      <point x="384" y="-80" type="line"/>
      <point x="394" y="-80" type="line"/>
      <point x="394" y="780" type="line"/>
      <point x="384" y="780" type="line"/>
    </contour>
    <component base="C"/>
  </outline>
</glyph>
<glyph name="uni2C63" format="2">
  <advance width="638"/>
  <unicode hex="2C63"/>
  <anchor x="319" y="0" name="bottom"/>
  <anchor x="319" y="714" name="top"/>
  <anchor x="628" y="714" name="topright"/>
  <outline>
    <contour>
      <point x="24" y="482" type="line"/>
      <point x="381" y="482" type="line"/>
      <point x="381" y="492" type="line"/>
      <point x="24" y="492" type="line"/>
    </contour>
    <component base="P"/>
  </outline>
</glyph>
<glyph name="uni2C65" format="2">
  <advance width="599"/>
  <unicode hex="2C65"/>
  <anchor x="300" y="-206" name="bottom"/>
  <anchor x="300" y="714" name="top"/>
  <anchor x="579" y="536" name="topright"/>
  <outline>
    <contour>
      <point x="143" y="-206" type="line"/>
      <point x="153" y="-206" type="line"/>
      <point x="404" y="714" type="line"/>
      <point x="394" y="714" type="line"/>
    </contour>
    <component base="a"/>
  </outline>
</glyph>
<glyph name="uni2C66" format="2">
  <advance width="405"/>
  <unicode hex="2C66"/>
  <anchor x="203" y="-206" name="bottom"/>
  <anchor x="203" y="714" name="top"/>
  <anchor x="203" y="268" name="center"/>
  <anchor x="255" y="1040" name="topright"/>
  <outline>
    <contour>
      <point x="103" y="-206" type="line"/>
      <point x="113" y="-206" type="line"/>
      <point x="364" y="714" type="line"/>
      <point x="354" y="714" type="line"/>
    </contour>
    <component base="t"/>
  </outline>
</glyph>
<glyph name="uni2E44" format="2">
  <advance width="306"/>
  <unicode hex="2E44"/>
  <outline>
    <contour>
      <point x="49" y="544" type="line"/>
      <point x="266" y="689" type="line"/>
      <point x="179" y="772" type="line"/>
      <point x="40" y="552" type="line"/>
    </contour>
    <contour>
      <point x="49" y="-76" type="line"/>
      <point x="266" y="69" type="line"/>
      <point x="179" y="152" type="line"/>
      <point x="40" y="-68" type="line"/>
    </contour>
  </outline>
</glyph>
<glyph name="uniA671" format="2">
  <unicode hex="A671"/>
  <outline>
    <contour>
      <point x="-264" y="579" type="line"/>
      <point x="-244" y="579" type="line"/>
      <point x="-244" y="701" type="line"/>
      <point x="244" y="701" type="line"/>
      <point x="244" y="579" type="line"/>
      <point x="264" y="579" type="line"/>
      <point x="264" y="721" type="line"/>
      <point x="-264" y="721" type="line"/>
    </contour>
    <contour>
      <point x="-264" y="-185" type="line"/>
      <point x="264" y="-185" type="line"/>
      <point x="264" y="-43" type="line"/>
      <point x="244" y="-43" type="line"/>
      <point x="244" y="-165" type="line"/>
      <point x="-244" y="-165" type="line"/>
      <point x="-244" y="-43" type="line"/>
      <point x="-264" y="-43" type="line"/>
    </contour>
  </outline>
</glyph>
<glyph name="uniA740" format="2">
  <advance width="734"/>
  <unicode hex="A740"/>
  <anchor x="367" y="714" name="top"/>
  <anchor x="367" y="0" name="bottom"/>
  <anchor x="714" y="714" name="topright"/>
  <outline>
    <contour>
      <point x="28" y="559" type="line"/>
      <point x="373" y="559" type="line"/>
      <point x="373" y="569" type="line"/>
      <point x="28" y="569" type="line"/>
    </contour>
    <component base="K"/>
  </outline>
</glyph>
<glyph name="uniA743" format="2">
  <advance width="636"/>
  <unicode hex="A743"/>
  <anchor x="318" y="760" name="top"/>
  <anchor x="318" y="0" name="bottom"/>
  <anchor x="616" y="760" name="topright"/>
  <outline>
    <contour>
      <point x="305" y="105" type="line"/>
      <point x="526" y="271" type="line"/>
      <point x="520" y="279" type="line"/>
      <point x="299" y="113" type="line"/>
    </contour>
    <component base="k"/>
  </outline>
</glyph>
<glyph name="uniA748" format="2">
  <advance width="654"/>
  <unicode hex="A748"/>
  <anchor x="327" y="0" name="bottom"/>
  <anchor x="327" y="357" name="center"/>
  <anchor x="327" y="714" name="top"/>
  <anchor x="634" y="714" name="topright"/>
  <outline>
    <contour>
      <point x="28" y="559" type="line"/>
      <point x="373" y="559" type="line"/>
      <point x="373" y="569" type="line"/>
      <point x="28" y="569" type="line"/>
    </contour>
    <component base="L"/>
  </outline>
</glyph>
<glyph name="uniA749" format="2">
  <advance width="352"/>
  <unicode hex="A749"/>
  <anchor x="176" y="0" name="bottom"/>
  <anchor x="176" y="268" name="center"/>
  <anchor x="176" y="760" name="top"/>
  <anchor x="302" y="760" name="topright"/>
  <outline>
    <contour>
      <point x="17" y="604" type="line"/>
      <point x="335" y="604" type="line"/>
      <point x="335" y="614" type="line"/>
      <point x="17" y="614" type="line"/>
    </contour>
    <component base="l"/>
  </outline>
</glyph>
<glyph name="uniA750" format="2">
  <advance width="638"/>
  <unicode hex="A750"/>
  <anchor x="200" y="0" name="bottom"/>
  <anchor x="319" y="714" name="top"/>
  <anchor x="628" y="714" name="topright"/>
  <outline>
    <contour>
      <point x="28" y="166" type="line"/>
      <point x="393" y="166" type="line"/>
      <point x="393" y="176" type="line"/>
      <point x="28" y="176" type="line"/>
    </contour>
    <component base="P"/>
  </outline>
</glyph>
<glyph name="uniA751" format="2">
  <advance width="645"/>
  <unicode hex="A751"/>
  <anchor x="340" y="-240" name="bottom"/>
  <anchor x="340" y="536" name="top"/>
  <anchor x="642" y="536" name="topright"/>
  <outline>
    <contour>
      <point x="13" y="-92" type="line"/>
      <point x="371" y="-92" type="line"/>
      <point x="371" y="-82" type="line"/>
      <point x="13" y="-82" type="line"/>
    </contour>
    <component base="p"/>
  </outline>
</glyph>
<glyph name="uniA756" format="2">
  <advance width="787"/>
  <unicode hex="A756"/>
  <anchor x="394" y="-240" name="bottom"/>
  <anchor x="394" y="714" name="top"/>
  <anchor x="767" y="714" name="topright"/>
  <outline>
    <contour>
      <point x="294" y="-191" type="line"/>
      <point x="610" y="-63" type="line"/>
      <point x="606" y="-54" type="line"/>
      <point x="290" y="-182" type="line"/>
    </contour>
    <component base="Q"/>
  </outline>
</glyph>
<glyph name="uniA75F" format="2">
  <advance width="606"/>
  <unicode hex="A75F"/>
  <anchor x="313" y="0" name="bottom"/>
  <anchor x="313" y="536" name="top"/>
  <anchor x="606" y="536" name="topright"/>
  <outline>
    <contour>
      <point x="152" y="-50" type="line"/>
      <point x="163" y="-50" type="line"/>
      <point x="417" y="596" type="line"/>
      <point x="406" y="596" type="line"/>
    </contour>
    <component base="v"/>
  </outline>
</glyph>
<glyph name="uniA764" format="2">
  <advance width="638"/>
  <unicode hex="A764"/>
  <outline>
    <contour>
      <point x="28" y="0" type="line"/>
      <point x="373" y="0" type="line"/>
      <point x="373" y="10" type="line"/>
      <point x="332" y="10" type="line" smooth="yes"/>
      <point x="304" y="10"/>
      <point x="279" y="17"/>
      <point x="279" y="70" type="curve" smooth="yes"/>
      <point x="279" y="157" type="line"/>
      <point x="313" y="157" type="line" smooth="yes"/>
      <point x="529" y="157"/>
      <point x="608" y="239"/>
      <point x="608" y="334" type="curve" smooth="yes"/>
      <point x="608" y="439"/>
      <point x="520" y="497"/>
      <point x="335" y="497" type="curve" smooth="yes"/>
      <point x="279" y="497" type="line"/>
      <point x="279" y="578" type="line"/>
      <point x="373" y="578" type="line"/>
      <point x="373" y="588" type="line"/>
      <point x="280" y="588" type="line"/>
      <point x="280" y="686"/>
      <point x="295" y="704"/>
      <point x="342" y="704" type="curve" smooth="yes"/>
      <point x="373" y="704" type="line"/>
      <point x="373" y="714" type="line"/>
      <point x="28" y="714" type="line"/>
      <point x="28" y="704" type="line"/>
      <point x="60" y="704" type="line" smooth="yes"/>
      <point x="105" y="704"/>
      <point x="119" y="686"/>
      <point x="119" y="588" type="curve"/>
      <point x="28" y="588" type="line"/>
      <point x="28" y="578" type="line"/>
      <point x="121" y="578" type="line"/>
      <point x="121" y="75" type="line" smooth="yes"/>
      <point x="121" y="18"/>
      <point x="99" y="10"/>
      <point x="70" y="10" type="curve" smooth="yes"/>
      <point x="28" y="10" type="line"/>
    </contour>
    <contour>
      <point x="279" y="167" type="line"/>
      <point x="279" y="487" type="line"/>
      <point x="318" y="487" type="line" smooth="yes"/>
      <point x="408" y="487"/>
      <point x="440" y="447"/>
      <point x="440" y="333" type="curve" smooth="yes"/>
      <point x="440" y="210"/>
      <point x="404" y="167"/>
      <point x="303" y="167" type="curve" smooth="yes"/>
    </contour>
  </outline>
</glyph>
<glyph name="uniA765" format="2">
  <advance width="645"/>
  <unicode hex="A765"/>
  <anchor x="323" y="-240" name="bottom"/>
  <anchor x="323" y="760" name="top"/>
  <outline>
    <contour>
      <point x="27" y="603" type="line"/>
      <point x="365" y="603" type="line"/>
      <point x="365" y="613" type="line"/>
      <point x="27" y="613" type="line"/>
    </contour>
    <component base="thorn"/>
  </outline>
</glyph>
<glyph name="uniA7A0" format="2">
  <advance width="769"/>
  <unicode hex="A7A0"/>
  <anchor x="435" y="-10" name="bottom"/>
  <anchor x="435" y="714" name="top"/>
  <anchor x="749" y="714" name="topright"/>
  <outline>
    <contour>
      <point x="0" y="247" type="line"/>
      <point x="741" y="412" type="line"/>
      <point x="741" y="422" type="line"/>
      <point x="0" y="257" type="line"/>
    </contour>
    <component base="G"/>
  </outline>
</glyph>
<glyph name="uniA7A2" format="2">
  <advance width="734"/>
  <unicode hex="A7A2"/>
  <anchor x="398" y="0" name="bottom"/>
  <anchor x="404" y="714" name="top"/>
  <anchor x="714" y="714" name="topright"/>
  <outline>
    <contour>
      <point x="28" y="136" type="line"/>
      <point x="680" y="273" type="line"/>
      <point x="680" y="283" type="line"/>
      <point x="28" y="146" type="line"/>
    </contour>
    <component base="K"/>
  </outline>
</glyph>
<glyph name="uniA7A5" format="2">
  <advance width="667"/>
  <unicode hex="A7A5"/>
  <anchor x="334" y="0" name="bottom"/>
  <anchor x="334" y="536" name="top"/>
  <anchor x="637" y="536" name="topright"/>
  <outline>
    <contour>
      <point x="20" y="200" type="line"/>
      <point x="641" y="316" type="line"/>
      <point x="641" y="326" type="line"/>
      <point x="20" y="210" type="line"/>
    </contour>
    <component base="n"/>
  </outline>
</glyph>
<glyph name="uniA7A6" format="2">
  <advance width="707"/>
  <unicode hex="A7A6"/>
  <anchor x="397" y="0" name="bottom"/>
  <anchor x="354" y="714" name="top"/>
  <anchor x="687" y="714" name="topright"/>
  <outline>
    <contour>
      <point x="28" y="440" type="line"/>
      <point x="700" y="591" type="line"/>
      <point x="700" y="601" type="line"/>
      <point x="28" y="450" type="line"/>
    </contour>
    <component base="R"/>
  </outline>
</glyph>
<glyph name="uniA7A8" format="2">
  <advance width="586"/>
  <unicode hex="A7A8"/>
  <anchor x="267" y="-10" name="bottom"/>
  <anchor x="293" y="714" name="top"/>
  <anchor x="566" y="714" name="topright"/>
  <outline>
    <contour>
      <point x="20" y="305" type="line"/>
      <point x="547" y="422" type="line"/>
      <point x="547" y="432" type="line"/>
      <point x="20" y="315" type="line"/>
    </contour>
    <component base="S"/>
  </outline>
</glyph>
<glyph name="uniA7A9" format="2">
  <advance width="488"/>
  <unicode hex="A7A9"/>
  <anchor x="244" y="0" name="bottom"/>
  <anchor x="244" y="536" name="top"/>
  <anchor x="468" y="536" name="topright"/>
  <outline>
    <contour>
      <point x="17" y="217" type="line"/>
      <point x="467" y="332" type="line"/>
      <point x="467" y="342" type="line"/>
      <point x="17" y="227" type="line"/>
    </contour>
    <component base="s"/>
  </outline>
</glyph>
<glyph name="uniA7AE" format="2">
  <advance width="567"/>
  <unicode hex="A7AE"/>
  <outline>
    <contour>
      <point x="27" y="0" type="line"/>
      <point x="541" y="0" type="line"/>
      <point x="547" y="164" type="line"/>
      <point x="537" y="164" type="line"/>
      <point x="535" y="140" type="line" smooth="yes"/>
      <point x="528" y="41"/>
      <point x="494" y="10"/>
      <point x="395" y="10" type="curve" smooth="yes"/>
      <point x="360" y="10" type="line"/>
      <point x="360" y="526" type="line"/>
      <point x="395" y="526" type="line" smooth="yes"/>
      <point x="494" y="526"/>
      <point x="528" y="495"/>
      <point x="535" y="396" type="curve" smooth="yes"/>
      <point x="537" y="372" type="line"/>
      <point x="547" y="372" type="line"/>
      <point x="541" y="536" type="line"/>
      <point x="27" y="536" type="line"/>
      <point x="21" y="372" type="line"/>
      <point x="31" y="372" type="line"/>
      <point x="33" y="396" type="line" smooth="yes"/>
      <point x="40" y="495"/>
      <point x="74" y="526"/>
      <point x="173" y="526" type="curve" smooth="yes"/>
      <point x="208" y="526" type="line"/>
      <point x="208" y="10" type="line"/>
      <point x="173" y="10" type="line" smooth="yes"/>
      <point x="74" y="10"/>
      <point x="40" y="41"/>
      <point x="33" y="140" type="curve" smooth="yes"/>
      <point x="31" y="164" type="line"/>
      <point x="21" y="164" type="line"/>
    </contour>
  </outline>
</glyph>
<glyph name="uniA7B8" format="2">
  <advance width="747"/>
  <unicode hex="A7B8"/>
  <anchor x="374" y="0" name="bottom"/>
  <anchor x="419" y="714" name="top"/>
  <anchor x="747" y="714" name="topright"/>
  <outline>
    <contour>
      <point x="115" y="-15" type="line"/>
      <point x="126" y="-15" type="line"/>
      <point x="672" y="726" type="line"/>
      <point x="661" y="726" type="line"/>
    </contour>
    <component base="U"/>
  </outline>
</glyph>
<glyph name="uniA7B9" format="2">
  <advance width="667"/>
  <unicode hex="A7B9"/>
  <anchor x="334" y="0" name="bottom"/>
  <anchor x="334" y="536" name="top"/>
  <anchor x="637" y="536" name="topright"/>
  <outline>
    <contour>
      <point x="115" y="-15" type="line"/>
      <point x="126" y="-15" type="line"/>
      <point x="584" y="550" type="line"/>
      <point x="573" y="550" type="line"/>
    </contour>
    <component base="u"/>
  </outline>
</glyph>
<glyph name="uniA7C4" format="2">
  <advance width="668"/>
  <unicode hex="A7C4"/>
  <anchor x="413" y="-10" name="bottom"/>
  <anchor x="384" y="714" name="top"/>
  <anchor x="648" y="714" name="topright"/>
  <outline>
    <contour>
      <point x="627" y="-13" type="curve" smooth="yes"/>
      <point x="627" y="121" type="line"/>
      <point x="617" y="116" type="line"/>
      <point x="617" y="-13" type="line" smooth="yes"/>
      <point x="617" y="-125"/>
      <point x="573" y="-176"/>
      <point x="515" y="-176" type="curve" smooth="yes"/>
      <point x="440" y="-176"/>
      <point x="471" y="-73"/>
      <point x="388" y="-73" type="curve" smooth="yes"/>
      <point x="342" y="-73"/>
      <point x="321" y="-107"/>
      <point x="321" y="-142" type="curve" smooth="yes"/>
      <point x="321" y="-194"/>
      <point x="368" y="-222"/>
      <point x="461" y="-222" type="curve" smooth="yes"/>
      <point x="562" y="-222"/>
      <point x="627" y="-158"/>
    </contour>
    <component base="C"/>
  </outline>
</glyph>
<glyph name="uniA7C5" format="2">
  <advance width="586"/>
  <unicode hex="A7C5"/>
  <anchor x="267" y="-10" name="bottom"/>
  <anchor x="293" y="714" name="top"/>
  <anchor x="566" y="714" name="topright"/>
  <outline>
    <contour>
      <point x="30" y="-13" type="line"/>
      <point x="30" y="-158"/>
      <point x="95" y="-222"/>
      <point x="196" y="-222" type="curve" smooth="yes"/>
      <point x="289" y="-222"/>
      <point x="336" y="-194"/>
      <point x="336" y="-142" type="curve" smooth="yes"/>
      <point x="336" y="-107"/>
      <point x="315" y="-73"/>
      <point x="269" y="-73" type="curve" smooth="yes"/>
      <point x="186" y="-73"/>
      <point x="217" y="-176"/>
      <point x="142" y="-176" type="curve" smooth="yes"/>
      <point x="84" y="-176"/>
      <point x="40" y="-125"/>
      <point x="40" y="-13" type="curve" smooth="yes"/>
      <point x="40" y="126" type="line"/>
      <point x="30" y="131" type="line"/>
    </contour>
    <component base="S"/>
  </outline>
</glyph>
<glyph name="uniA7C7" format="2">
  <advance width="767"/>
  <unicode hex="A7C7"/>
  <anchor x="384" y="0" name="bottom"/>
  <anchor x="384" y="357" name="center"/>
  <anchor x="384" y="714" name="top"/>
  <anchor x="747" y="714" name="topright"/>
  <outline>
    <contour>
      <point x="203" y="363" type="line"/>
      <point x="642" y="363" type="line"/>
      <point x="642" y="373" type="line"/>
      <point x="203" y="373" type="line"/>
    </contour>
    <component base="D"/>
  </outline>
</glyph>
<glyph name="uniA7FF" format="2">
  <advance width="997"/>
  <unicode hex="A7FF"/>
  <outline>
    <contour>
      <point x="4" y="0" type="line"/>
      <point x="201" y="0" type="line"/>
      <point x="201" y="10" type="line"/>
      <point x="167" y="10" type="line" smooth="yes"/>
      <point x="123" y="10"/>
      <point x="101" y="25"/>
      <point x="101" y="59" type="curve" smooth="yes"/>
      <point x="101" y="70"/>
      <point x="105" y="92"/>
      <point x="110" y="109" type="curve" smooth="yes"/>
      <point x="163" y="297" type="line" smooth="yes"/>
      <point x="177" y="347"/>
      <point x="197" y="417"/>
      <point x="205" y="450" type="curve"/>
      <point x="208" y="450" type="line"/>
      <point x="221" y="402"/>
      <point x="238" y="347"/>
      <point x="254" y="300" type="curve" smooth="yes"/>
      <point x="352" y="5" type="line"/>
      <point x="416" y="5" type="line"/>
      <point x="543" y="460" type="line"/>
      <point x="676" y="0" type="line"/>
      <point x="767" y="0" type="line"/>
      <point x="893" y="447" type="line" smooth="yes"/>
      <point x="911" y="512"/>
      <point x="930" y="526"/>
      <point x="966" y="526" type="curve" smooth="yes"/>
      <point x="997" y="526" type="line"/>
      <point x="997" y="536" type="line"/>
      <point x="786" y="536" type="line"/>
      <point x="786" y="526" type="line"/>
      <point x="820" y="526" type="line" smooth="yes"/>
      <point x="864" y="526"/>
      <point x="886" y="511"/>
      <point x="886" y="477" type="curve" smooth="yes"/>
      <point x="886" y="466"/>
      <point x="882" y="444"/>
      <point x="877" y="427" type="curve" smooth="yes"/>
      <point x="824" y="239" type="line" smooth="yes"/>
      <point x="811" y="194"/>
      <point x="799" y="150"/>
      <point x="785" y="99" type="curve"/>
      <point x="783" y="99" type="line"/>
      <point x="772" y="146"/>
      <point x="760" y="189"/>
      <point x="748" y="232" type="curve" smooth="yes"/>
      <point x="662" y="536" type="line"/>
      <point x="554" y="536" type="line"/>
      <point x="479" y="268" type="line" smooth="yes"/>
      <point x="467" y="225"/>
      <point x="455" y="184"/>
      <point x="443" y="137" type="curve"/>
      <point x="441" y="137" type="line"/>
      <point x="429" y="183"/>
      <point x="416" y="222"/>
      <point x="403" y="262" type="curve" smooth="yes"/>
      <point x="314" y="536" type="line"/>
      <point x="220" y="536" type="line"/>
      <point x="94" y="89" type="line" smooth="yes"/>
      <point x="76" y="24"/>
      <point x="57" y="10"/>
      <point x="21" y="10" type="curve" smooth="yes"/>
      <point x="4" y="10" type="line"/>
    </contour>
  </outline>
</glyph>
<glyph name="uniAB30" format="2">
  <advance width="649"/>
  <unicode hex="AB30"/>
  <anchor x="325" y="0" name="bottom"/>
  <anchor x="325" y="536" name="top"/>
  <outline>
    <contour>
      <point x="-26" y="279" type="line"/>
      <point x="633" y="279" type="line"/>
      <point x="633" y="289" type="line"/>
      <point x="-26" y="289" type="line"/>
    </contour>
    <component base="uni0251"/>
  </outline>
</glyph>
<glyph name="uniAB41" format="2">
  <advance width="936"/>
  <unicode hex="AB41"/>
  <anchor x="467" y="541" name="bottom"/>
  <anchor x="467" y="5" name="top"/>
  <outline>
    <contour>
      <point x="437" y="-40" type="line"/>
      <point x="448" y="-40" type="line"/>
      <point x="828" y="576" type="line"/>
      <point x="817" y="576" type="line"/>
    </contour>
    <component base="oe" xScale="-1" yScale="-1" xOffset="935" yOffset="541"/>
  </outline>
</glyph>
<glyph name="uniAB60" format="2">
  <advance width="941"/>
  <unicode hex="AB60"/>
  <outline>
    <contour>
      <point x="375" y="0" type="line"/>
      <point x="691" y="0" type="line" smooth="yes"/>
      <point x="843" y="0"/>
      <point x="916" y="67"/>
      <point x="916" y="157" type="curve" smooth="yes"/>
      <point x="916" y="282"/>
      <point x="809" y="305"/>
      <point x="686" y="305" type="curve" smooth="yes"/>
      <point x="610" y="305" type="line"/>
      <point x="610" y="465" type="line" smooth="yes"/>
      <point x="610" y="512"/>
      <point x="648" y="526"/>
      <point x="692" y="526" type="curve" smooth="yes"/>
      <point x="705" y="526" type="line"/>
      <point x="705" y="536" type="line"/>
      <point x="375" y="536" type="line"/>
      <point x="375" y="526" type="line"/>
      <point x="386" y="526" type="line" smooth="yes"/>
      <point x="433" y="526"/>
      <point x="458" y="507"/>
      <point x="458" y="461" type="curve" smooth="yes"/>
      <point x="458" y="74" type="line" smooth="yes"/>
      <point x="458" y="32"/>
      <point x="435" y="10"/>
      <point x="386" y="10" type="curve" smooth="yes"/>
      <point x="375" y="10" type="line"/>
    </contour>
    <contour>
      <point x="17" y="0" type="line"/>
      <point x="330" y="0" type="line"/>
      <point x="330" y="10" type="line"/>
      <point x="323" y="10" type="line" smooth="yes"/>
      <point x="294" y="10"/>
      <point x="252" y="18"/>
      <point x="252" y="75" type="curve" smooth="yes"/>
      <point x="252" y="461" type="line" smooth="yes"/>
      <point x="252" y="518"/>
      <point x="294" y="526"/>
      <point x="323" y="526" type="curve" smooth="yes"/>
      <point x="330" y="526" type="line"/>
      <point x="330" y="536" type="line"/>
      <point x="17" y="536" type="line"/>
      <point x="17" y="526" type="line"/>
      <point x="29" y="526" type="line" smooth="yes"/>
      <point x="58" y="526"/>
      <point x="100" y="518"/>
      <point x="100" y="461" type="curve" smooth="yes"/>
      <point x="100" y="75" type="line" smooth="yes"/>
      <point x="100" y="18"/>
      <point x="58" y="10"/>
      <point x="29" y="10" type="curve" smooth="yes"/>
      <point x="17" y="10" type="line"/>
    </contour>
    <contour>
      <point x="610" y="10" type="line"/>
      <point x="610" y="295" type="line"/>
      <point x="651" y="295" type="line" smooth="yes"/>
      <point x="727" y="295"/>
      <point x="757" y="257"/>
      <point x="757" y="160" type="curve" smooth="yes"/>
      <point x="757" y="52"/>
      <point x="728" y="10"/>
      <point x="655" y="10" type="curve" smooth="yes"/>
    </contour>
  </outline>
</glyph>
<glyph name="uniAB69" format="2">
  <advance width="558"/>
  <unicode hex="AB69"/>
  <anchor x="279" y="287" name="bottom"/>
  <anchor x="1" y="287" name="bottomleft"/>
  <anchor x="279" y="609" name="top"/>
  <outline>
    <contour>
      <point x="519" y="325" type="curve" smooth="yes"/>
      <point x="428" y="609" type="line"/>
      <point x="357" y="609" type="line"/>
      <point x="285" y="371" type="line"/>
      <point x="201" y="609" type="line"/>
      <point x="140" y="609" type="line"/>
      <point x="58" y="341" type="line" smooth="yes"/>
      <point x="47" y="302"/>
      <point x="34" y="293"/>
      <point x="11" y="293" type="curve" smooth="yes"/>
      <point x="0" y="293" type="line"/>
      <point x="0" y="287" type="line"/>
      <point x="128" y="287" type="line"/>
      <point x="128" y="293" type="line"/>
      <point x="106" y="293" type="line" smooth="yes"/>
      <point x="77" y="293"/>
      <point x="63" y="302"/>
      <point x="63" y="323" type="curve" smooth="yes"/>
      <point x="63" y="329"/>
      <point x="66" y="343"/>
      <point x="69" y="353" type="curve" smooth="yes"/>
      <point x="103" y="466" type="line" smooth="yes"/>
      <point x="112" y="496"/>
      <point x="125" y="538"/>
      <point x="131" y="557" type="curve"/>
      <point x="133" y="557" type="line"/>
      <point x="141" y="529"/>
      <point x="152" y="496"/>
      <point x="162" y="467" type="curve" smooth="yes"/>
      <point x="226" y="290" type="line"/>
      <point x="268" y="290" type="line"/>
      <point x="340" y="529" type="line" smooth="yes"/>
      <point x="344" y="541"/>
      <point x="346" y="550"/>
      <point x="350" y="563" type="curve"/>
      <point x="352" y="563" type="line"/>
      <point x="359" y="536"/>
      <point x="377" y="479"/>
      <point x="387" y="448" type="curve" smooth="yes"/>
      <point x="419" y="344" type="line" smooth="yes"/>
      <point x="422" y="335"/>
      <point x="424" y="325"/>
      <point x="424" y="319" type="curve" smooth="yes"/>
      <point x="424" y="299"/>
      <point x="411" y="293"/>
      <point x="385" y="293" type="curve" smooth="yes"/>
      <point x="369" y="293" type="line"/>
      <point x="369" y="287" type="line"/>
      <point x="559" y="287" type="line"/>
      <point x="559" y="293" type="line"/>
      <point x="557" y="293" type="line" smooth="yes"/>
      <point x="540" y="293"/>
      <point x="528" y="299"/>
    </contour>
  </outline>
</glyph>
<glyph name="uniFE21" format="2">
  <unicode hex="FE21"/>
  <anchor x="-2" y="536" name="_top"/>
  <outline>
    <contour>
      <point x="376" y="593" type="curve"/>
      <point x="386" y="593" type="line"/>
      <point x="320" y="730"/>
      <point x="185" y="796"/>
      <point x="10" y="796" type="curve" smooth="yes"/>
      <point x="-2" y="796" type="line"/>
      <point x="-2" y="714" type="line"/>
      <point x="210" y="714"/>
      <point x="301" y="684"/>
    </contour>
  </outline>
</glyph>
<glyph name="uniFE22" format="2">
  <unicode hex="FE22"/>
  <anchor x="3" y="536" name="_top"/>
  <outline>
    <contour>
      <point x="-384" y="593" type="curve"/>
      <point x="-374" y="593" type="line"/>
      <point x="-350" y="645"/>
      <point x="-311" y="665"/>
      <point x="-245" y="665" type="curve" smooth="yes"/>
      <point x="-128" y="665"/>
      <point x="-68" y="644"/>
      <point x="3" y="626" type="curve"/>
      <point x="3" y="708" type="line"/>
      <point x="-57" y="723"/>
      <point x="-126" y="738"/>
      <point x="-196" y="738" type="curve" smooth="yes"/>
      <point x="-315" y="738"/>
      <point x="-364" y="669"/>
    </contour>
  </outline>
</glyph>
<glyph name="uniFE27" format="2">
  <unicode hex="FE27"/>
  <anchor x="0" y="0" name="_bottom"/>
  <anchor x="-197" y="536" name="braceleft"/>
  <outline>
    <contour>
      <point x="0" y="-213" type="curve"/>
      <point x="0" y="-141" type="line"/>
      <point x="-214" y="-141"/>
      <point x="-327" y="-104"/>
      <point x="-383" y="-26" type="curve"/>
      <point x="-393" y="-26" type="line"/>
      <point x="-317" y="-161"/>
      <point x="-189" y="-213"/>
    </contour>
  </outline>
</glyph>
<glyph name="uniFE28" format="2">
  <unicode hex="FE28"/>
  <anchor x="0" y="0" name="_bottom"/>
  <anchor x="197" y="536" name="braceleft"/>
  <outline>
    <contour>
      <point x="0" y="-213" type="line"/>
      <point x="189" y="-213"/>
      <point x="317" y="-161"/>
      <point x="393" y="-26" type="curve"/>
      <point x="383" y="-26" type="line"/>
      <point x="327" y="-104"/>
      <point x="214" y="-141"/>
      <point x="0" y="-141" type="curve"/>
    </contour>
  </outline>
</glyph>
<glyph name="uniFE29" format="2">
  <unicode hex="FE29"/>
  <anchor x="0" y="0" name="_bottom"/>
  <anchor x="-199" y="536" name="braceleft"/>
  <outline>
    <contour>
      <point x="-398" y="-202" type="curve"/>
      <point x="-388" y="-202" type="line"/>
      <point x="-374" y="-177"/>
      <point x="-355" y="-159"/>
      <point x="-333" y="-148" type="curve" smooth="yes"/>
      <point x="-312" y="-138"/>
      <point x="-289" y="-128"/>
      <point x="-246" y="-128" type="curve" smooth="yes"/>
      <point x="-167" y="-128"/>
      <point x="-103" y="-146"/>
      <point x="0" y="-172" type="curve"/>
      <point x="0" y="-92" type="line"/>
      <point x="-76" y="-71"/>
      <point x="-148" y="-61"/>
      <point x="-213" y="-61" type="curve" smooth="yes"/>
      <point x="-309" y="-61"/>
      <point x="-375" y="-113"/>
    </contour>
  </outline>
</glyph>
<glyph name="uniFE2A" format="2">
  <unicode hex="FE2A"/>
  <anchor x="0" y="0" name="_bottom"/>
  <anchor x="199" y="536" name="braceleft"/>
  <outline>
    <contour>
      <point x="213" y="-203" type="curve" smooth="yes"/>
      <point x="309" y="-203"/>
      <point x="375" y="-151"/>
      <point x="398" y="-62" type="curve"/>
      <point x="388" y="-62" type="line"/>
      <point x="374" y="-87"/>
      <point x="355" y="-105"/>
      <point x="333" y="-116" type="curve" smooth="yes"/>
      <point x="312" y="-126"/>
      <point x="289" y="-136"/>
      <point x="246" y="-136" type="curve" smooth="yes"/>
      <point x="167" y="-136"/>
      <point x="103" y="-118"/>
      <point x="0" y="-92" type="curve"/>
      <point x="0" y="-172" type="line"/>
      <point x="76" y="-193"/>
      <point x="148" y="-203"/>
    </contour>
  </outline>
</glyph>
<glyph name="hbar.sc" format="2">
  <advance width="710"/>
  <anchor x="355" y="0" name="bottom"/>
  <anchor x="355" y="571" name="top"/>
  <anchor x="355" y="286" name="center"/>
  <anchor x="690" y="571" name="topright"/>
  <outline>
    <contour>
      <point x="21" y="418" type="line"/>
      <point x="689" y="418" type="line"/>
      <point x="689" y="428" type="line"/>
      <point x="21" y="428" type="line"/>
    </contour>
    <component base="h.sc"/>
  </outline>
</glyph>
